<svg xmlns="http://www.w3.org/2000/svg" viewBox="0 0 3333 2594" shape-rendering="geometricPrecision" text-rendering="geometricPrecision" image-rendering="optimizeQuality" fill-rule="evenodd" clip-rule="evenodd"><path d="M3042 1492c-13-9-28-13-43-10s-28 11-37 24l-51 72c-18-8-37-14-57-19s-39-9-59-12l-16-94c-3-16-11-28-23-37-13-9-27-12-43-9l-118 21c-15 3-27 10-37 23-9 13-13 27-10 43l15 86c-19 8-37 17-54 28-17 10-34 22-49 34l-80-55c-13-9-27-13-42-10s-28 11-37 24l-68 97c-9 13-13 28-10 43 3 16 11 28 24 37l72 51c-8 18-14 37-19 57s-9 39-12 59l-94 16c-16 3-28 11-37 23-9 13-12 27-9 43l21 118c3 15 10 27 23 37 13 9 27 13 43 10l86-15c8 19 17 37 28 54 10 17 22 34 34 50l-55 79c-9 13-13 27-10 42s11 28 24 37l98 69c13 9 28 12 43 9s28-10 38-23l51-73c18 8 37 14 57 19s39 9 59 12l16 94c3 16 11 28 23 37 13 9 27 12 43 9l118-21c15-3 27-10 37-23 9-13 13-27 10-43l-15-86c19-8 37-17 54-28 17-10 34-22 50-34l79 55c13 9 27 13 43 10s28-11 37-24l69-98c9-13 12-28 9-43s-10-28-23-38l-73-50c8-18 14-37 19-57s9-39 12-59l94-16c16-3 28-11 37-23 9-13 12-27 9-43l-21-118c-3-15-10-27-23-37-13-9-27-13-43-10l-86 15c-8-18-17-36-28-54-10-18-22-34-34-49l55-80c9-13 13-27 10-42s-11-28-24-37l-97-68zm-343 278c31-5 62-5 93 2 30 7 57 19 82 36 24 17 45 39 62 65s28 55 33 86 5 62-2 93c-7 30-19 57-36 82-17 24-39 45-65 62s-55 28-86 33-62 5-93-2c-30-7-57-19-82-36-24-17-45-39-62-65s-28-55-33-86-5-62 2-93c7-30 19-57 36-82 17-24 39-45 65-62s55-28 86-33zM1791 368c-5-5-9-8-14-10-4-2-9-3-15-3s-11 1-15 3-9 5-13 9l-1 1-113 113c-22 22-57 25-82 7-13-8-26-16-41-24-16-8-31-16-45-23-15-7-31-14-47-20-14-5-30-11-49-17-27-9-44-34-44-61V170c0-6-1-12-3-16s-5-9-9-12c-4-4-8-7-12-9s-10-3-16-3h-218c-6 0-11 1-15 2-4 2-9 5-14 10-4 4-7 8-8 12-2 4-3 10-3 16v159c0 32-23 58-53 64-17 4-33 8-47 12-16 5-31 10-47 16-15 6-31 12-46 20-16 7-30 15-44 22-26 14-56 9-76-11L576 328c-1-1-1-1-1-2-4-4-8-7-12-9s-8-2-14-2-11 1-15 3c-5 2-9 5-14 10L368 481c-5 5-8 9-10 14-2 4-3 9-3 15s1 11 3 15 5 9 9 13v1l113 113c22 22 25 57 7 82-8 13-16 26-24 41-8 16-16 31-23 45-7 15-14 31-20 47-5 14-11 30-17 49-9 27-34 44-61 44H169c-6 0-12 1-16 3s-8 5-12 8c-4 4-7 8-8 12-2 4-3 10-3 16v218c0 6 1 11 2 15 2 4 5 9 10 14 4 4 8 7 12 8 4 2 10 3 16 3h159c32 0 58 23 64 53 4 17 8 33 12 46 5 16 10 32 16 48 6 15 12 31 20 47 8 17 15 32 22 46 13 26 8 56-12 75l-124 123-1 1c-4 4-7 8-9 12s-2 8-2 14 1 11 3 15c2 5 5 10 10 14l151 153c4 4 9 7 14 9s10 3 16 3 12-1 17-3c4-2 9-5 13-8l112-114c22-23 57-25 82-8 13 8 26 16 41 24 16 8 31 16 45 23 15 7 31 14 47 20 14 5 30 11 49 17 27 9 44 34 44 61v173c0 6 1 12 3 16s5 9 8 12c8 8 17 11 29 11h218c6 0 11-1 15-2 4-2 9-5 14-10 4-4 7-8 8-12 2-4 3-10 3-16v-159c0-32 23-58 53-64 17-4 33-8 47-12 16-5 31-10 47-16 15-6 31-12 47-20 17-8 32-15 46-22 26-13 56-8 75 12l123 124 1 1c4 4 8 7 12 9s9 2 15 2 11-1 15-3 8-5 12-9c1-1 2-2 3-2l152-150c4-4 7-9 9-14s3-10 3-16-1-12-3-17c-2-4-5-9-8-13l-114-112c-23-22-25-57-8-82 8-13 16-26 24-41 8-16 16-31 23-45 7-15 14-31 20-47 5-14 11-30 17-49 9-27 34-44 61-44h173c6 0 12-1 16-3s9-5 12-8c8-8 11-17 11-29v-218c0-6-1-11-2-15-2-4-5-9-10-14-4-4-8-7-12-8-4-2-10-3-16-3h-159c-32 0-59-24-64-54-4-14-8-29-12-44-5-15-10-31-17-48 0-1-1-2-1-3-6-16-12-30-18-44-7-15-14-30-22-44-14-26-9-56 11-76l124-125c0-1 1-1 2-1 4-4 7-8 9-12s2-8 2-14-1-11-3-15c-2-5-5-9-10-14l-153-152zm36-129c21 9 39 21 55 37l153 152h1c16 16 28 34 37 54 9 21 13 42 13 65s-5 45-13 65c-9 20-21 38-38 53l-90 91c1 3 3 6 4 9 8 17 15 35 22 52 0 1 1 2 1 3 7 17 13 36 19 56l2 7h110c23 0 45 4 65 13 20 8 38 21 54 37l1 1c16 16 28 34 36 54s13 42 13 64v218c0 47-16 87-49 120-16 16-35 29-55 37s-42 12-65 12h-128c-1 3-3 7-4 10-7 18-15 36-23 54-9 19-17 37-26 53l-3 6 78 77 3 3c16 16 27 35 35 55s12 41 12 64c0 22-4 43-12 63s-19 38-35 55l-2 2-153 152c-16 17-34 29-54 38s-42 13-66 13c-23 0-45-5-66-13-21-9-39-22-54-38l-89-90c-3 2-6 3-10 4-17 7-35 15-54 22-18 7-37 13-56 19-3 1-5 2-8 2v109c0 23-4 45-13 65-8 20-21 38-37 54l-1 1c-16 16-34 28-54 36s-42 13-64 13h-218c-47 0-87-16-120-49-16-16-29-35-37-55s-12-42-12-65v-128c-3-1-7-3-10-4-18-7-36-15-54-23-19-9-37-17-53-26l-6-3-77 78-3 3c-16 16-35 27-55 35s-41 12-64 12c-22 0-43-4-63-12s-38-19-55-35l-2-2-153-155c-16-16-28-34-37-54-9-21-13-42-13-65s5-45 13-65c9-20 22-38 38-54l90-89c-2-3-3-6-4-10-7-17-15-35-22-54s-14-37-19-56l-2-8H172c-23 0-45-4-65-13-20-8-38-21-54-37l-1-1c-16-16-28-34-36-54s-13-42-13-64V997c0-23 4-44 12-65 8-20 21-38 37-55 16-16 35-29 55-37s42-12 65-12h128c1-3 3-7 4-10 7-18 15-36 23-54 9-19 17-37 26-53l3-6-77-78c-16-16-29-34-37-55-9-21-13-43-13-65 0-23 4-44 13-65s21-39 37-55l152-153v-1c16-16 34-28 54-37 21-9 42-13 65-13s45 5 65 13c20 9 38 21 53 38l91 90c3-1 6-3 8-4 17-8 35-15 54-23 18-7 37-13 56-19 3-1 5-2 8-2V167c0-23 4-45 13-65 8-20 21-38 37-54l1-1c16-16 34-28 54-36s42-13 64-13h218c23 0 44 4 65 12s39 21 55 37 29 35 37 55 12 42 12 65v128c3 1 7 3 10 4 18 7 36 15 54 23 19 9 37 17 53 26l6 3 78-77c16-16 34-29 55-37 21-9 43-13 65-13 23 0 44 4 65 13zm-691 405c33 0 66 3 98 10 31 6 62 16 93 29 29 13 57 28 83 45s50 37 72 59 42 46 59 73c18 26 33 54 45 83 1 2 1 4 2 5 12 29 21 59 27 88 6 32 10 65 10 98s-3 66-10 98c-6 31-16 62-29 93-13 29-28 57-45 83-18 26-37 50-59 73-22 22-46 42-73 59-26 18-54 33-83 45-2 1-4 1-5 2-29 12-59 21-88 27-32 6-65 10-98 10s-66-3-98-10c-31-6-62-16-93-29-29-13-57-28-83-45s-50-37-72-59-42-46-59-73c-18-26-33-54-45-83-1-2-1-4-2-5-12-29-21-59-27-88-6-32-10-65-10-98s3-66 10-98c6-31 16-62 29-93 13-29 28-57 45-83s37-50 59-73c22-22 46-42 72-59 26-18 54-33 83-45 2-1 4-1 5-2 29-12 59-21 88-27 32-6 65-10 98-10zm73 136c-23-5-48-7-73-7s-49 2-73 7c-23 5-44 11-64 19-1 1-2 1-4 2-23 10-44 21-63 34s-37 27-53 43-31 34-43 53c-13 19-24 40-34 63-9 21-16 44-21 68-5 23-7 48-7 73s2 49 7 73c5 23 11 44 19 64 1 1 1 2 2 4 10 23 21 44 34 63s27 37 43 53 34 31 53 43c19 13 40 24 63 34 21 9 44 16 68 21 23 5 48 7 73 7s49-2 73-7c23-5 44-11 64-19 1-1 2-1 4-2 23-10 44-21 63-34s37-27 53-43 31-34 43-53c13-19 24-40 34-63 9-21 16-44 21-68 5-23 7-48 7-73s-2-49-7-73c-5-23-11-44-19-64-1-1-1-2-2-4-10-23-21-44-34-63s-27-37-43-53-34-31-53-43c-19-13-40-24-63-34-21-9-44-16-68-21z" fill-rule="nonzero"/></svg>