<!DOCTYPE svg PUBLIC "-//W3C//DTD SVG 20010904//EN" "http://www.w3.org/TR/2001/REC-SVG-20010904/DTD/svg10.dtd">
<svg version="1.0" xmlns="http://www.w3.org/2000/svg" width="980px" height="878px" viewBox="0 0 9800 8780" preserveAspectRatio="xMidYMid meet">
<g id="layer101" fill="#ede0b6" stroke="none">
 <path d="M7779 8621 c-61 -24 -33 -5 -1293 -860 -610 -414 -1128 -762 -1150 -774 -58 -31 -193 -31 -251 0 -22 11 -305 212 -630 445 -324 233 -606 433 -625 445 -55 34 -147 56 -198 49 -66 -9 -145 -49 -175 -87 -14 -19 -35 -56 -47 -84 -12 -27 -160 -576 -330 -1220 -170 -643 -318 -1196 -330 -1228 -35 -94 -74 -136 -170 -185 -47 -23 -568 -227 -1158 -452 -590 -226 -1096 -422 -1125 -436 -137 -68 -193 -189 -153 -328 21 -72 71 -128 147 -167 75 -37 8857 -3532 8972 -3570 252 -83 419 30 405 275 -6 98 -1500 7933 -1528 8014 -27 76 -65 122 -130 155 -65 33 -159 36 -231 8z m-113 -857 c38 -18 65 -57 87 -129 30 -95 1130 -5887 1131 -5955 1 -84 -17 -136 -54 -155 -42 -22 -142 -19 -188 4 -20 11 -840 792 -1822 1736 -2216 2132 -2307 2220 -2327 2259 -11 20 -16 56 -16 102 0 86 20 126 91 177 26 19 574 391 1217 827 644 437 1275 865 1403 952 128 87 249 167 270 178 47 25 158 27 208 4z m-3625 -709 c52 -27 419 -293 466 -338 33 -32 45 -52 53 -93 17 -82 -2 -155 -52 -200 -27 -25 -625 -432 -706 -481 -50 -29 -64 -33 -128 -33 -83 0 -115 18 -135 77 -21 65 -3 165 101 558 95 359 131 467 165 495 50 42 169 49 236 15z m-417 -1447 c14 -7 56 -50 93 -95 37 -46 914 -895 1948 -1889 1034 -993 1906 -1832 1937 -1865 77 -79 98 -122 98 -199 0 -51 -4 -65 -25 -85 -33 -34 -117 -37 -210 -8 -60 18 -5837 2315 -5911 2349 -81 38 -98 63 -102 148 -5 90 11 125 71 160 23 13 357 144 742 291 769 293 789 301 846 345 59 47 92 129 165 405 105 402 118 432 190 455 37 12 125 5 158 -12z"/>
 </g>

</svg>